<?xml version="1.0" encoding="utf-8"?>
<!-- Svg Vector Icons : http://www.onlinewebfonts.com/icon -->
<!DOCTYPE svg PUBLIC "-//W3C//DTD SVG 1.1//EN" "http://www.w3.org/Graphics/SVG/1.1/DTD/svg11.dtd">
<svg version="1.1" xmlns="http://www.w3.org/2000/svg" xmlns:xlink="http://www.w3.org/1999/xlink" x="0px" y="0px" viewBox="0 0 256 256" enable-background="new 0 0 256 256" xml:space="preserve">
<metadata> Svg Vector Icons : http://www.onlinewebfonts.com/icon </metadata>
<g><g><path fill="#000000" d="M213.1,151.5L68.6,242l-0.1-0.2c-1,0.7-2.1,1.2-3.2,1.7c0,0-0.1,0-0.1,0.1c-1.1,0.5-2.2,0.9-3.4,1.3c-0.1,0-0.2,0-0.2,0.1c-0.5,0.1-1,0.3-1.5,0.4c-0.1,0-0.2,0-0.3,0.1c-0.6,0.1-1.2,0.2-1.7,0.3c-0.1,0-0.2,0-0.3,0c-0.5,0.1-1,0.1-1.5,0.2c-0.1,0-0.3,0-0.5,0c-0.6,0-1.2,0.1-1.8,0.1c-15.1,0-24.5-16.1-24.5-31.1l0,0l0,0V41.3l0,0C29.5,26.3,39,10,54,10c5.7,0,11,1.8,15.4,4.7l143.4,89.6c8.2,4.7,13.7,13.5,13.7,23.6C226.5,138,221.1,146.8,213.1,151.5z"/></g></g>
</svg>